<svg xmlns="http://www.w3.org/2000/svg" width="27" height="27" fill="none" viewBox="0 0 27 27">
  <g filter="url(#a)">
    <g clip-path="url(#b)">
      <path fill="#1D1E1D" d="M19.34 15.55c3.387-3.424 3.387-8.973 0-12.396a8.612 8.612 0 0 0-12.269 0c-3.388 3.423-3.388 8.972 0 12.395a8.612 8.612 0 0 0 12.268 0Z"/>
      <path fill="url(#c)" d="M22.413 8.378C21.93 3.67 17.993 0 13.206 0 8.419 0 4.483 3.67 4 8.378h18.413Z"/>
      <path fill="#E7E7E9" d="M4 10.325c.483 4.708 4.42 8.378 9.206 8.378 4.785 0 8.724-3.67 9.206-8.378H4Z"/>
      <path fill="#1D1E1D" d="M13.206 12.298c1.61 0 2.916-1.32 2.916-2.947s-1.306-2.947-2.916-2.947c-1.611 0-2.917 1.32-2.917 2.947s1.306 2.947 2.917 2.947Z"/>
      <path fill="#F7F7F7" d="M13.205 11.653a2.29 2.29 0 0 0 2.279-2.302c0-1.271-1.02-2.302-2.279-2.302-1.258 0-2.278 1.03-2.278 2.302s1.02 2.302 2.278 2.302Z"/>
      <path fill="#B8B5B5" d="M13.205 10.904c.85 0 1.538-.695 1.538-1.553s-.688-1.554-1.538-1.554c-.849 0-1.537.696-1.537 1.554 0 .858.688 1.553 1.537 1.553Z"/>
      <path fill="#F7F7F7" d="M13.206 10.79c.786 0 1.424-.644 1.424-1.439s-.638-1.439-1.424-1.439c-.787 0-1.425.644-1.425 1.44 0 .794.638 1.438 1.425 1.438Z"/>
    </g>
  </g>
  <defs>
    <linearGradient id="c" x1="23.975" x2="7.378" y1="7.013" y2="7.357" gradientUnits="userSpaceOnUse">
      <stop stop-color="#B57E10"/>
      <stop offset=".241" stop-color="#B57E10"/>
      <stop offset=".404" stop-color="#F9DF7B"/>
      <stop offset=".594" stop-color="#FFF3A6"/>
      <stop offset=".781" stop-color="#F9DF7B"/>
      <stop offset="1" stop-color="#B57E10"/>
    </linearGradient>
    <clipPath id="b">
      <path fill="#fff" d="M0 0h18.413v18.704H0z" transform="translate(4)"/>
    </clipPath>
    <filter id="a" width="26.413" height="26.704" x="0" y="0" color-interpolation-filters="sRGB" filterUnits="userSpaceOnUse">
      <feFlood flood-opacity="0" result="BackgroundImageFix"/>
      <feColorMatrix in="SourceAlpha" result="hardAlpha" values="0 0 0 0 0 0 0 0 0 0 0 0 0 0 0 0 0 0 127 0"/>
      <feOffset dy="4"/>
      <feGaussianBlur stdDeviation="2"/>
      <feColorMatrix values="0 0 0 0 0 0 0 0 0 0 0 0 0 0 0 0 0 0 0.25 0"/>
      <feBlend in2="BackgroundImageFix" result="effect1_dropShadow_502_6686"/>
      <feBlend in="SourceGraphic" in2="effect1_dropShadow_502_6686" result="shape"/>
    </filter>
  </defs>
</svg>
