<svg xmlns="http://www.w3.org/2000/svg" width="158" height="63" fill="none" viewBox="0 0 158 63">
  <path fill="#0B0000" fill-rule="evenodd" d="M82.963 52.778V37.267l-16.732-6.985 8.782-9.192-11.51-11.002-3.263 6.734.125-6.474-14.586 5.02.376 8.44 2.477-.694 2.576 29.78 10.284-1.628-.018-9.943 21.49 11.455Z" clip-rule="evenodd"/>
  <path fill="#fff" fill-rule="evenodd" d="m48.524 17.534 8.862-2.842.546 9.837 6.528-9.876 6.376 6.542-8.916 10.126 18.351 7.833v9.008l-21.32-11.494.036 12.043-5.518.81-2.351-30.128-2.486.694-.108-2.553Z" clip-rule="evenodd"/>
  <path fill="#0B0000" fill-rule="evenodd" d="M115.719 11.57h-9.658l-.277 1.706h-10.16l-4.748 31.283 11.59 1.965.635-4.49 3.032 6.022 1.842-3.844.679 6.31 13.137 2.496-6.072-41.448Z" clip-rule="evenodd"/>
  <path fill="#fff" fill-rule="evenodd" d="M108.601 14.463h4.919l4.981 34.848-7.262-1.195-1.931-13.787-2.728 7.602-4.096-9.5h-.044l-1.619 11.013-6.805-1.282 4.05-26.09h6.887l1.717 10.116 1.931-11.725Z" clip-rule="evenodd"/>
  <path fill="#0B0000" fill-rule="evenodd" d="m128.016 14.423 14.532 3.44 1.082 5.78 1.172-5.212 12.368 3.227-11.876 38.548-9.113-3.093-.071-3.863-8.746-1.32 2.951-28.287-2.191-.53-.108-8.69Z" clip-rule="evenodd"/>
  <path fill="#fff" fill-rule="evenodd" d="m130.601 18.035 9.471 2.052 3.192 16.283 3.264-14.597 7.208 1.725-10.15 33.123-5.044-1.628-.438-20.02-2.54 15.444-5.499-.935 2.468-28.046-2.075-.597.143-2.804Z" clip-rule="evenodd"/>
  <path fill="#0B0000" fill-rule="evenodd" d="M126.621 47.478c-3.139 1.272-6.474 1.127-9.157-.414-2.486-1.416-4.221-3.873-4.892-6.908-1.341-6.05 2.37-12.958 8.272-15.396 3.175-1.291 6.537-1.137 9.238.414 2.459 1.407 4.176 3.806 4.829 6.754 1.369 6.137-2.343 13.113-8.29 15.55Z" clip-rule="evenodd"/>
  <path fill="#fff" fill-rule="evenodd" d="M132.611 32.488c-1.073-4.856-5.884-7.293-10.821-5.29-4.784 1.976-7.923 7.554-6.841 12.41 1.109 5.01 5.876 7.438 10.812 5.434 4.82-1.966 7.959-7.583 6.85-12.554Z" clip-rule="evenodd"/>
  <path fill="#0B0000" fill-rule="evenodd" d="M129.026 33.344c-.099 2.679-2.263 4.702-4.91 4.586-2.602-.115-4.605-2.312-4.507-4.99.098-2.515 2.254-4.538 4.901-4.423 2.611.116 4.614 2.313 4.516 4.827Z" clip-rule="evenodd"/>
  <path fill="#fff" fill-rule="evenodd" d="M125.662 28.633c-1.583-.068-2.906 1.108-2.969 2.62-.053 1.513 1.181 2.804 2.764 2.871 1.582.068 2.906-1.108 2.969-2.62.053-1.513-1.181-2.804-2.764-2.871Z" clip-rule="evenodd"/>
  <path fill="#0B0000" fill-rule="evenodd" d="M46.502 50.852c-3.21 1.464-6.69 1.464-9.542-.01-2.638-1.368-4.543-3.835-5.357-6.966-1.627-6.233 1.959-13.584 8.004-16.388 3.246-1.474 6.752-1.474 9.623.02 2.61 1.348 4.489 3.766 5.285 6.801 1.663 6.32-1.932 13.749-8.013 16.543Z" clip-rule="evenodd"/>
  <path fill="#fff" fill-rule="evenodd" d="M52.217 34.694c-1.324-5.048-6.457-7.38-11.554-5.048-4.946 2.293-8.013 8.285-6.69 13.334 1.36 5.212 6.457 7.534 11.555 5.212 4.98-2.293 8.048-8.334 6.689-13.498Z" clip-rule="evenodd"/>
  <path fill="#0B0000" fill-rule="evenodd" d="M48.766 35.658c0 2.678-2.084 4.788-4.731 4.788-2.602 0-4.686-2.11-4.686-4.788 0-2.515 2.084-4.635 4.73-4.635 2.603 0 4.687 2.11 4.687 4.635Z" clip-rule="evenodd"/>
  <path fill="#fff" fill-rule="evenodd" d="M45.232 31.09c-1.582 0-2.87 1.233-2.87 2.746 0 1.512 1.279 2.745 2.87 2.745 1.583 0 2.871-1.233 2.871-2.745 0-1.513-1.288-2.746-2.87-2.746Z" clip-rule="evenodd"/>
  <path fill="#000" fill-rule="evenodd" d="M28.787 41.544c6.904-5.462 10.194-13.719 7.7-19.914-1.092-2.707-3.005-4.942-5.348-6.35-1.646-1.175-3.604-1.916-5.661-2.167-5.044-.954-11.098.029-17.054 2.756a40.853 40.853 0 0 0-6.081 3.42L0 20.879l1.404 2.562 4.364 7.949s1.341 2.447 1.35 2.437l2.37-1.243.331-.173 10.848 26.1 1.046 2.505 2.432-.838 5.876-2.024 2.575-.886-.68-2.813-3.13-12.91Z" clip-rule="evenodd"/>
  <path fill="#fff" fill-rule="evenodd" d="M33.864 22.853c-.867-2.149-2.36-3.835-4.31-5.02-1.413-1.011-3.05-1.512-4.579-1.695-4.346-.82-9.756-.049-15.453 2.553a37.611 37.611 0 0 0-5.67 3.18l4.365 7.948c1.117-.588 2.325-1.214 2.977-1.59l12.064 29.01 5.876-2.024-3.622-15.01c6.948-4.596 10.454-12.14 8.352-17.352Z" clip-rule="evenodd"/>
  <path fill="#0B0000" fill-rule="evenodd" d="m95.581 30.484-4.131-4.008 2.03-2.322 1.824-2.09-1.681-2.226c-3.282-4.355-8.532-6.099-14.04-4.664-7.664 1.985-11.984 9.096-10.276 16.89.689 3.14 2.513 5.829 5.151 7.572 3.148 2.091 7.11 2.66 11.143 1.61 4.257-1.108 7.387-2.968 10.132-6.022l2.2-2.447-2.352-2.293Z" clip-rule="evenodd"/>
  <path fill="#fff" fill-rule="evenodd" d="M89.23 28.586c-1.038 1.32-2.227 2.525-4.338 3.074-.706.183-1.663.356-2.271.24l8.88-10.183c-2.504-3.324-6.618-4.865-11.277-3.651-5.795 1.503-9.712 6.705-8.263 13.334 1.163 5.328 6.636 8.594 12.985 6.946 3.845-1.002 6.52-2.601 8.916-5.27l-4.632-4.49Z" clip-rule="evenodd"/>
  <path fill="#0B0000" fill-rule="evenodd" d="M75.36 13.498 86.236 0l6.019 9.683-13.746 7.958-3.147-4.143Z" clip-rule="evenodd"/>
  <path fill="#fff" fill-rule="evenodd" d="m85.77 4.297 3.183 4.663-9.095 4.856-.635-1.031 6.546-8.488Z" clip-rule="evenodd"/>
  <path fill="#000" fill-rule="evenodd" d="M79.029 28.739c-.653-1.281-.528-2.929.447-4.075.939-1.108 2.37-1.426 3.595-.916l-4.042 4.991Zm.447-4.075c-.966 1.146-1.1 2.794-.447 4.075l4.042-4.99c-1.225-.511-2.665-.193-3.595.915Zm5.84-1.667c-2.075-2.033-5.277-1.87-7.164.366-1.887 2.235-1.735 5.684.34 7.717.17.174.358.318.546.453l6.644-8.15c-.125-.136-.241-.26-.367-.386Zm-6.287 5.742c-.653-1.281-.528-2.929.447-4.075.939-1.108 2.37-1.426 3.595-.916l-4.042 4.991Zm-49.732-.924c-.519-3.073-4.23-4.798-7.95-2.65l.93 3.527 1.467 5.203.67 2.37c2.79-1.898 5.598-4.191 4.883-8.45Zm-3.693 4.702-1.27-4.5c.009.02-.18-.664-.376-1.425.787-.154 1.538-.077 2.164.25.35.183.948.597 1.073 1.388.296 1.763-.268 3.025-1.591 4.287Zm5.286 30.378c.01.028.018.048.027.077 0 .01.01.019.01.029-.01-.039-.027-.068-.036-.106Zm117.022-6.186h2.674v.424h-1.109v3.131h-.456v-3.131h-1.109v-.424Zm3.07 3.555V56.71h.644l.948 3.006.939-3.006h.635v3.555h-.421v-2.1c0-.077 0-.193.009-.357v-.54l-.939 2.997h-.438l-.948-2.996v.106c0 .087 0 .221.009.395 0 .173.009.308.009.395v2.1h-.447Z" clip-rule="evenodd"/>
</svg>
